<?xml version="1.0" encoding="UTF-8"?>
<svg width="200px" height="200px" viewBox="0 0 200 200" version="1.1" xmlns="http://www.w3.org/2000/svg" xmlns:xlink="http://www.w3.org/1999/xlink">
    <title>logo 纯图片</title>
    <g id="页面-1" stroke="none" stroke-width="1" fill="none" fill-rule="evenodd">
        <g id="logo-纯图片" fill-rule="nonzero">
            <path d="M112.303566,69.8843743 C100.014443,64.7463611 85.8398493,67.5252418 76.4004264,76.9230624 C66.9610034,86.3208831 64.1195406,100.483064 69.2032225,112.794762 C74.2869044,125.106461 86.2925097,133.138364 99.6124849,133.138364 C108.319007,133.157845 116.676691,129.717819 122.846729,123.574974 C129.016767,117.432129 132.493676,109.089721 132.513125,100.383197 C132.57119,87.0633514 124.59269,75.0223874 112.303566,69.8843743 Z" id="路径" fill="#F4CA1C"></path>
            <path d="M191.965485,117.845197 C191.902832,104.028702 185.809887,90.9284521 175.283833,81.9784997 C164.757779,73.0285474 150.848266,69.1213759 137.201485,71.2811971 C131.82387,53.3284796 116.76454,39.9549997 98.3021397,36.7365248 C79.8397393,33.5180498 61.1435358,41.0070653 50.0084849,56.0811971 C43.5932216,64.7336192 40.2301823,75.2701107 40.4464849,86.0391971 C19.9603859,89.3195973 5.44848513,107.812069 7.13285068,128.490662 C8.81721623,149.169254 26.1305536,165.069415 46.8774849,164.991484 L149.958485,164.991484 C150.963224,164.984369 151.951497,164.735329 152.839485,164.265197 C175.406796,160.316997 191.894863,140.75517 191.965485,117.845197 L191.965485,117.845197 Z M144.615485,152.474699 L46.8774849,152.474699 C37.1121566,152.533383 28.0631901,147.357596 23.1633607,138.9103 C18.2635313,130.463004 18.2635313,120.03839 23.1633607,111.591094 C28.0631901,103.143798 37.1121566,97.9680114 46.8774849,98.0271971 C47.4535248,98.0187072 48.0256184,97.9305375 48.5774849,97.7651971 C51.7965405,97.0685748 53.9207179,93.9910781 53.4304849,90.7341971 C51.9630708,81.1041774 54.3863191,71.2859503 60.1658718,63.444563 C65.9454244,55.6031757 74.6065959,50.3826562 84.2394849,48.9341971 C102.453006,46.1172622 119.942487,57.2047025 125.165485,74.8791971 C108.224797,82.4677777 97.3061126,99.2825514 97.2654849,117.845197 C97.2654849,121.316307 100.079375,124.130197 103.550485,124.130197 C107.021595,124.130197 109.835485,121.316307 109.835485,117.845197 C109.774757,103.765005 118.209669,91.0374193 131.200642,85.6069386 C144.191615,80.1764578 159.17514,83.114679 169.153069,93.0492876 C179.130997,102.983896 182.134384,117.954495 176.760479,130.968973 C171.386573,143.983452 158.695808,152.474699 144.615485,152.474699 L144.615485,152.474699 Z" id="形状" fill="#595BB3"></path>
        </g>
    </g>
</svg>